<svg id="Layer_1" data-name="Layer 1" xmlns="http://www.w3.org/2000/svg" xmlns:xlink="http://www.w3.org/1999/xlink" viewBox="0 0 1417.32 595.28" style="height:50px;">
  <defs>
    <style>
      .cls-1 {
        clip-path: url(#clippath);
      }

      .cls-2 {
        fill: none;
      }

      .cls-2, .cls-3, .cls-4 {
        stroke-width: 0px;
      }

      .cls-3 {
        fill: none;
      }

      .cls-4 {
        fill: #fff;
      }
    </style>
    <clipPath id="clippath">
      <rect class="cls-2" width="1417.32" height="595.28"></rect>
    </clipPath>
  </defs>
  <rect class="cls-3" y="0" width="1417.32" height="595.28"></rect>
  <g class="cls-1">
    <path class="cls-4" d="M1201.33,437.6h51.07v-112.95l-4.72-68.4h1.35l14.18,68.4,17.32,112.95h49.95V122.6h-50.62v82.8l4.05,68.85h-1.35l-13.95-68.85-13.72-82.8h-53.55v315ZM1116.73,393.05c-5.85,0-9.22-7.43-9.22-94.73v-36.45c0-87.3,3.38-94.73,9.22-94.73,5.4,0,9.22,7.43,9.22,94.73v36.45c0,87.3-3.82,94.73-9.22,94.73M1116.73,441.88c50.4,0,69.75-34.43,69.75-145.13v-33.3c0-110.7-19.35-145.12-69.75-145.12s-69.75,34.2-69.75,145.12v33.3c0,110.93,19.35,145.13,69.75,145.13M964.86,441.88c47.93.22,68.85-34.65,68.85-86.85v-6.07c0-108.45-76.95-90-76.95-157.05v-6.3c0-12.15,2.03-19.58,8.33-19.58s9,6.75,10.8,38.25l.45,9.22,55.35-5.62-.45-8.1c-4.05-57.6-24.97-81.45-65.92-81.45s-67.5,26.32-67.5,79.88v5.85c0,86.85,76.5,82.12,76.5,151.65v8.32c0,22.05-2.25,29.7-9.45,29.7s-8.77-7.2-10.8-49.95l-.45-9.9-58.27,5.85.45,11.7c2.47,63.9,25.2,90.23,69.07,90.45M814.11,441.88c47.92.22,68.85-34.65,68.85-86.85v-6.07c0-108.45-76.95-90-76.95-157.05v-6.3c0-12.15,2.02-19.58,8.32-19.58s9,6.75,10.8,38.25l.45,9.22,55.35-5.62-.45-8.1c-4.05-57.6-24.97-81.45-65.92-81.45s-67.5,26.32-67.5,79.88v5.85c0,86.85,76.5,82.12,76.5,151.65v8.32c0,22.05-2.25,29.7-9.45,29.7s-8.78-7.2-10.8-49.95l-.45-9.9-58.28,5.85.45,11.7c2.48,63.9,25.2,90.23,69.08,90.45M671.01,437.6h59.62V122.6h-59.62v315ZM582.14,261.88h-6.52v-91.12h6.75c10.58,0,14.17,9.45,14.17,44.78s-2.47,46.35-14.4,46.35M515.99,437.6h59.62v-123.98h5.62l19.35,123.98h61.2l-27-134.55c13.5-13.27,21.15-40.27,21.15-88.2,0-69.75-22.05-92.25-55.35-92.25h-84.6v315ZM427.34,261.88h-6.52v-91.12h6.75c10.57,0,14.17,9.45,14.17,44.78s-2.48,46.35-14.4,46.35M361.19,437.6h59.63v-123.98h5.62l19.35,123.98h61.2l-27-134.55c13.5-13.27,21.15-40.27,21.15-88.2,0-69.75-22.05-92.25-55.35-92.25h-84.6v315ZM204.15,437.6h61.43l2.7-49.27h21.6l2.7,49.27h61.65l-40.95-315h-67.95l-41.18,315ZM279.75,202.93l7.65,137.92h-16.65l7.43-137.92h1.57ZM120.23,443.23c18.67,0,29.02-13.95,33.3-29.92h.9l8.77,24.3h33.98v-171h-67.5v49.05h10.35v69.3c-1.35,4.05-4.5,10.12-8.55,10.12-6.98,0-10.8-9.68-10.8-96.75v-36.45c0-86.4,3.38-94.73,8.77-94.73s8.78,9.9,9.45,48.38l.23,11.47,56.7-3.38-.45-11.02c-.9-52.42-14.4-94.27-65.48-94.27s-69.75,31.05-69.75,145.12v33.3c0,117.9,23.62,146.48,60.08,146.48"></path>
  </g>
</svg>