<svg width="233" height="120" viewBox="0 0 233 120" fill="none" xmlns="http://www.w3.org/2000/svg">
<path d="M16.874 71.5933C14.5922 71.5933 12.5433 71.3145 10.7272 70.757C8.91117 70.246 7.23478 69.5956 5.6981 68.8058L5.76795 60.5131H6.46644L8.84132 64.6943C9.86577 66.5526 10.9834 67.9463 12.1941 68.8755C13.4514 69.7582 15.0346 70.1995 16.9438 70.1995C19.179 70.1995 20.9718 69.7117 22.3222 68.7361C23.7192 67.7141 24.4177 66.3668 24.4177 64.6943C24.4177 63.1612 23.9288 61.9069 22.9509 60.9312C21.973 59.9556 20.1569 59.0729 17.5026 58.2832L14.569 57.3772C11.7284 56.541 9.49324 55.2402 7.86343 53.4748C6.23361 51.7094 5.4187 49.5491 5.4187 46.994C5.4187 43.9278 6.62942 41.3261 9.05086 39.1891C11.4723 37.052 14.9415 35.9835 19.4584 35.9835C21.2745 35.9835 22.9742 36.1926 24.5574 36.6107C26.1872 36.9823 27.7472 37.5631 29.2373 38.3528L28.8182 45.879H28.1197L25.675 41.5584C24.7902 40.0253 23.9055 38.9568 23.0207 38.3528C22.1825 37.7024 20.902 37.3772 19.179 37.3772C17.5958 37.3772 16.1056 37.8186 14.7087 38.7013C13.3117 39.584 12.6132 40.8383 12.6132 42.4643C12.6132 44.0439 13.1953 45.2983 14.3594 46.2274C15.5701 47.1566 17.3396 48.016 19.668 48.8058L22.8112 49.7117C26.1639 50.7338 28.5621 52.1508 30.0057 53.9626C31.4492 55.728 32.171 57.865 32.171 60.3738C32.171 63.7652 30.8206 66.4829 28.1197 68.5271C25.4654 70.5712 21.7169 71.5933 16.874 71.5933Z" fill="#917864"/>
<path d="M16.874 71.5933C14.5922 71.5933 12.5433 71.3145 10.7272 70.757C8.91117 70.246 7.23478 69.5956 5.6981 68.8058L5.76795 60.5131H6.46644L8.84132 64.6943C9.86577 66.5526 10.9834 67.9463 12.1941 68.8755C13.4514 69.7582 15.0346 70.1995 16.9438 70.1995C19.179 70.1995 20.9718 69.7117 22.3222 68.7361C23.7192 67.7141 24.4177 66.3668 24.4177 64.6943C24.4177 63.1612 23.9288 61.9069 22.9509 60.9312C21.973 59.9556 20.1569 59.0729 17.5026 58.2832L14.569 57.3772C11.7284 56.541 9.49324 55.2402 7.86343 53.4748C6.23361 51.7094 5.4187 49.5491 5.4187 46.994C5.4187 43.9278 6.62942 41.3261 9.05086 39.1891C11.4723 37.052 14.9415 35.9835 19.4584 35.9835C21.2745 35.9835 22.9742 36.1926 24.5574 36.6107C26.1872 36.9823 27.7472 37.5631 29.2373 38.3528L28.8182 45.879H28.1197L25.675 41.5584C24.7902 40.0253 23.9055 38.9568 23.0207 38.3528C22.1825 37.7024 20.902 37.3772 19.179 37.3772C17.5958 37.3772 16.1056 37.8186 14.7087 38.7013C13.3117 39.584 12.6132 40.8383 12.6132 42.4643C12.6132 44.0439 13.1953 45.2983 14.3594 46.2274C15.5701 47.1566 17.3396 48.016 19.668 48.8058L22.8112 49.7117C26.1639 50.7338 28.5621 52.1508 30.0057 53.9626C31.4492 55.728 32.171 57.865 32.171 60.3738C32.171 63.7652 30.8206 66.4829 28.1197 68.5271C25.4654 70.5712 21.7169 71.5933 16.874 71.5933Z" fill="white" fill-opacity="0.1"/>
<path d="M47.4461 71.5933C45.6301 71.5933 43.9537 71.2448 42.417 70.548C40.9269 69.8511 39.7394 68.7361 38.8547 67.203C38.0165 65.6235 37.6207 63.5561 37.6672 61.0009L37.8768 43.0915C37.8768 42.023 37.6905 41.2564 37.318 40.7919C36.9455 40.3273 36.3634 40.0021 35.5718 39.8163L34.7336 39.5375V38.8407L47.2366 36.4016L47.9351 37.0985L47.5859 46.994V63.7884C47.5859 65.275 48.0049 66.3668 48.8431 67.0636C49.7279 67.7605 50.8222 68.1089 52.1261 68.1089C53.4299 68.1089 54.5941 67.9231 55.6185 67.5515C56.643 67.1798 57.6674 66.6223 58.6919 65.879L58.9713 43.1612C58.9713 42.0927 58.8083 41.3494 58.4823 40.9312C58.1564 40.4667 57.551 40.1415 56.6663 39.9556L55.9678 39.7466V39.0497L68.1914 36.4016L68.8899 37.0985L68.6803 46.994V65.879C68.6803 66.901 68.82 67.6908 69.0994 68.2483C69.3788 68.8058 69.9842 69.2704 70.9155 69.642L71.614 69.8511V70.548L59.3904 71.2448L58.7617 67.1333C57.2251 68.3877 55.5487 69.4562 53.7326 70.3389C51.9631 71.1751 49.8676 71.5933 47.4461 71.5933Z" fill="#917864"/>
<path d="M47.4461 71.5933C45.6301 71.5933 43.9537 71.2448 42.417 70.548C40.9269 69.8511 39.7394 68.7361 38.8547 67.203C38.0165 65.6235 37.6207 63.5561 37.6672 61.0009L37.8768 43.0915C37.8768 42.023 37.6905 41.2564 37.318 40.7919C36.9455 40.3273 36.3634 40.0021 35.5718 39.8163L34.7336 39.5375V38.8407L47.2366 36.4016L47.9351 37.0985L47.5859 46.994V63.7884C47.5859 65.275 48.0049 66.3668 48.8431 67.0636C49.7279 67.7605 50.8222 68.1089 52.1261 68.1089C53.4299 68.1089 54.5941 67.9231 55.6185 67.5515C56.643 67.1798 57.6674 66.6223 58.6919 65.879L58.9713 43.1612C58.9713 42.0927 58.8083 41.3494 58.4823 40.9312C58.1564 40.4667 57.551 40.1415 56.6663 39.9556L55.9678 39.7466V39.0497L68.1914 36.4016L68.8899 37.0985L68.6803 46.994V65.879C68.6803 66.901 68.82 67.6908 69.0994 68.2483C69.3788 68.8058 69.9842 69.2704 70.9155 69.642L71.614 69.8511V70.548L59.3904 71.2448L58.7617 67.1333C57.2251 68.3877 55.5487 69.4562 53.7326 70.3389C51.9631 71.1751 49.8676 71.5933 47.4461 71.5933Z" fill="white" fill-opacity="0.1"/>
<path d="M79.9059 87.2727C78.0432 87.2727 76.5531 86.8081 75.4355 85.879C74.3645 84.9498 73.829 83.7652 73.829 82.325C73.829 81.0242 74.2947 79.9789 75.226 79.1891C76.1573 78.3993 77.205 78.0044 78.3692 78.0044C79.5334 78.0044 80.5112 78.2367 81.3029 78.7013C82.0945 79.2123 82.793 79.9324 83.3983 80.8616L83.8873 81.419C84.9117 82.8128 85.9362 82.7895 86.9607 81.3494C87.3798 80.6525 87.8454 79.7233 88.3576 78.5619C88.9164 77.4469 89.5451 75.9371 90.2436 74.0323L76.6928 41.6978C76.3668 40.8151 76.0176 40.1182 75.6451 39.6072C75.2725 39.0497 74.6672 38.5851 73.829 38.2135L72.5717 37.7257V37.0288H89.9642V37.656L88.5672 38.2135C87.5427 38.5387 87.0072 39.0729 86.9607 39.8163C86.9607 40.5131 87.1469 41.3958 87.5195 42.4643L94.7838 61.2797L101.699 42.2553C102.071 41.1868 102.211 40.3041 102.118 39.6072C102.025 38.8639 101.443 38.3528 100.372 38.0741L98.9049 37.7257V37.0288H108.614V37.7257L107.077 38.2135C106.006 38.5387 105.261 39.0033 104.842 39.6072C104.423 40.2112 104.027 41.0474 103.655 42.1159L92.4089 72.7082C90.5928 77.5863 88.7767 81.2332 86.9607 83.649C85.1446 86.0648 82.793 87.2727 79.9059 87.2727Z" fill="#917864"/>
<path d="M79.9059 87.2727C78.0432 87.2727 76.5531 86.8081 75.4355 85.879C74.3645 84.9498 73.829 83.7652 73.829 82.325C73.829 81.0242 74.2947 79.9789 75.226 79.1891C76.1573 78.3993 77.205 78.0044 78.3692 78.0044C79.5334 78.0044 80.5112 78.2367 81.3029 78.7013C82.0945 79.2123 82.793 79.9324 83.3983 80.8616L83.8873 81.419C84.9117 82.8128 85.9362 82.7895 86.9607 81.3494C87.3798 80.6525 87.8454 79.7233 88.3576 78.5619C88.9164 77.4469 89.5451 75.9371 90.2436 74.0323L76.6928 41.6978C76.3668 40.8151 76.0176 40.1182 75.6451 39.6072C75.2725 39.0497 74.6672 38.5851 73.829 38.2135L72.5717 37.7257V37.0288H89.9642V37.656L88.5672 38.2135C87.5427 38.5387 87.0072 39.0729 86.9607 39.8163C86.9607 40.5131 87.1469 41.3958 87.5195 42.4643L94.7838 61.2797L101.699 42.2553C102.071 41.1868 102.211 40.3041 102.118 39.6072C102.025 38.8639 101.443 38.3528 100.372 38.0741L98.9049 37.7257V37.0288H108.614V37.7257L107.077 38.2135C106.006 38.5387 105.261 39.0033 104.842 39.6072C104.423 40.2112 104.027 41.0474 103.655 42.1159L92.4089 72.7082C90.5928 77.5863 88.7767 81.2332 86.9607 83.649C85.1446 86.0648 82.793 87.2727 79.9059 87.2727Z" fill="white" fill-opacity="0.1"/>
<path d="M124.472 71.5933C121.492 71.5933 119.164 70.8499 117.488 69.3633C115.858 67.8767 115.043 65.5073 115.043 62.2553V38.4225H110.223V37.7257L111.9 37.4469C113.343 37.1217 114.577 36.6571 115.602 36.0532C116.673 35.4492 117.72 34.6362 118.745 33.6142L124.472 27.2727H125.171L124.961 37.0288H132.785V38.4225H124.892V63.5096C124.892 65.1357 125.241 66.3668 125.939 67.203C126.684 68.0393 127.616 68.4574 128.733 68.4574C129.711 68.4574 130.573 68.2251 131.318 67.7605C132.063 67.2495 132.808 66.5758 133.553 65.7396L134.251 66.4365C133.32 68.016 132.039 69.2704 130.41 70.1995C128.78 71.1287 126.801 71.5933 124.472 71.5933Z" fill="#917864"/>
<path d="M124.472 71.5933C121.492 71.5933 119.164 70.8499 117.488 69.3633C115.858 67.8767 115.043 65.5073 115.043 62.2553V38.4225H110.223V37.7257L111.9 37.4469C113.343 37.1217 114.577 36.6571 115.602 36.0532C116.673 35.4492 117.72 34.6362 118.745 33.6142L124.472 27.2727H125.171L124.961 37.0288H132.785V38.4225H124.892V63.5096C124.892 65.1357 125.241 66.3668 125.939 67.203C126.684 68.0393 127.616 68.4574 128.733 68.4574C129.711 68.4574 130.573 68.2251 131.318 67.7605C132.063 67.2495 132.808 66.5758 133.553 65.7396L134.251 66.4365C133.32 68.016 132.039 69.2704 130.41 70.1995C128.78 71.1287 126.801 71.5933 124.472 71.5933Z" fill="white" fill-opacity="0.1"/>
<path d="M143.747 71.5933C142.07 71.5933 140.65 71.0125 139.486 69.8511C138.322 68.6897 137.739 67.2959 137.739 65.6699C137.739 64.0439 138.322 62.6269 139.486 61.419C140.65 60.2112 142.07 59.6072 143.747 59.6072C145.423 59.6072 146.843 60.2112 148.007 61.419C149.171 62.6269 149.754 64.0439 149.754 65.6699C149.754 67.2959 149.171 68.6897 148.007 69.8511C146.843 71.0125 145.423 71.5933 143.747 71.5933Z" fill="#D2CCC4"/>
<path d="M143.747 71.5933C142.07 71.5933 140.65 71.0125 139.486 69.8511C138.322 68.6897 137.739 67.2959 137.739 65.6699C137.739 64.0439 138.322 62.6269 139.486 61.419C140.65 60.2112 142.07 59.6072 143.747 59.6072C145.423 59.6072 146.843 60.2112 148.007 61.419C149.171 62.6269 149.754 64.0439 149.754 65.6699C149.754 67.2959 149.171 68.6897 148.007 69.8511C146.843 71.0125 145.423 71.5933 143.747 71.5933Z" fill="white" fill-opacity="0.1"/>
<path d="M171.04 72.0549C167.268 72.0549 163.892 71.2419 160.912 69.6159C157.978 67.9899 155.673 65.7599 153.997 62.926C152.321 60.0456 151.482 56.7936 151.482 53.1699C151.482 49.5462 152.321 46.3174 153.997 43.4835C155.673 40.6031 157.978 38.3732 160.912 36.7936C163.892 35.1676 167.268 34.3546 171.04 34.3546C174.393 34.3546 177.373 35.0282 179.981 36.3755C182.635 37.7228 184.684 39.674 186.128 42.2292L181.029 45.5044C179.864 43.739 178.421 42.415 176.698 41.5323C174.975 40.6496 173.066 40.2082 170.97 40.2082C168.549 40.2082 166.36 40.7425 164.404 41.811C162.495 42.8796 160.982 44.4127 159.864 46.4103C158.793 48.3616 158.258 50.6148 158.258 53.1699C158.258 55.7715 158.793 58.0712 159.864 60.0689C160.982 62.0201 162.495 63.53 164.404 64.5985C166.36 65.667 168.549 66.2013 170.97 66.2013C173.066 66.2013 174.975 65.7599 176.698 64.8772C178.421 63.9945 179.864 62.6705 181.029 60.9051L186.128 64.1107C184.684 66.6659 182.635 68.6403 179.981 70.034C177.373 71.3813 174.393 72.0549 171.04 72.0549Z" fill="#516440"/>
<path d="M208.373 72.0549C204.694 72.0549 201.388 71.2419 198.454 69.6159C195.521 67.9899 193.216 65.7599 191.539 62.926C189.909 60.0456 189.095 56.7936 189.095 53.1699C189.095 49.5462 189.909 46.3174 191.539 43.4835C193.216 40.6031 195.521 38.3732 198.454 36.7936C201.388 35.1676 204.694 34.3546 208.373 34.3546C212.052 34.3546 215.335 35.1676 218.222 36.7936C221.155 38.3732 223.437 40.6031 225.067 43.4835C226.743 46.3174 227.581 49.5462 227.581 53.1699C227.581 56.7936 226.743 60.0456 225.067 62.926C223.437 65.7599 221.155 67.9899 218.222 69.6159C215.335 71.2419 212.052 72.0549 208.373 72.0549ZM208.373 66.2013C210.748 66.2013 212.867 65.667 214.729 64.5985C216.638 63.4835 218.129 61.9504 219.2 59.9992C220.271 58.0015 220.806 55.7251 220.806 53.1699C220.806 50.6148 220.271 48.3616 219.2 46.4103C218.129 44.4127 216.638 42.8796 214.729 41.811C212.867 40.7425 210.748 40.2082 208.373 40.2082C205.998 40.2082 203.856 40.7425 201.947 41.811C200.084 42.8796 198.594 44.4127 197.476 46.4103C196.405 48.3616 195.87 50.6148 195.87 53.1699C195.87 55.7251 196.405 58.0015 197.476 59.9992C198.594 61.9504 200.084 63.4835 201.947 64.5985C203.856 65.667 205.998 66.2013 208.373 66.2013Z" fill="#516440"/>
</svg>
